<svg width="352" height="350" viewBox="0 0 352 350" fill="none" xmlns="http://www.w3.org/2000/svg">
<g filter="url(#filter0_d_135_2981)">
<rect x="101.187" y="93" width="123.619" height="86" rx="17" fill="#DAB805"/>
<path d="M162.996 151.75C160.447 151.75 158.362 153.775 158.362 156.25C158.362 158.725 160.447 160.75 162.996 160.75C165.546 160.75 167.631 158.725 167.631 156.25C167.631 153.775 165.546 151.75 162.996 151.75ZM149.092 111.25C146.543 111.25 144.457 113.275 144.457 115.75C144.457 118.225 146.543 120.25 149.092 120.25C151.641 120.25 153.727 118.225 153.727 115.75C153.727 113.275 151.641 111.25 149.092 111.25ZM149.092 124.75C146.543 124.75 144.457 126.775 144.457 129.25C144.457 131.725 146.543 133.75 149.092 133.75C151.641 133.75 153.727 131.725 153.727 129.25C153.727 126.775 151.641 124.75 149.092 124.75ZM149.092 138.25C146.543 138.25 144.457 140.275 144.457 142.75C144.457 145.225 146.543 147.25 149.092 147.25C151.641 147.25 153.727 145.225 153.727 142.75C153.727 140.275 151.641 138.25 149.092 138.25ZM176.901 120.25C179.45 120.25 181.536 118.225 181.536 115.75C181.536 113.275 179.45 111.25 176.901 111.25C174.352 111.25 172.266 113.275 172.266 115.75C172.266 118.225 174.352 120.25 176.901 120.25ZM162.996 138.25C160.447 138.25 158.362 140.275 158.362 142.75C158.362 145.225 160.447 147.25 162.996 147.25C165.546 147.25 167.631 145.225 167.631 142.75C167.631 140.275 165.546 138.25 162.996 138.25ZM176.901 138.25C174.352 138.25 172.266 140.275 172.266 142.75C172.266 145.225 174.352 147.25 176.901 147.25C179.45 147.25 181.536 145.225 181.536 142.75C181.536 140.275 179.45 138.25 176.901 138.25ZM176.901 124.75C174.352 124.75 172.266 126.775 172.266 129.25C172.266 131.725 174.352 133.75 176.901 133.75C179.45 133.75 181.536 131.725 181.536 129.25C181.536 126.775 179.45 124.75 176.901 124.75ZM162.996 124.75C160.447 124.75 158.362 126.775 158.362 129.25C158.362 131.725 160.447 133.75 162.996 133.75C165.546 133.75 167.631 131.725 167.631 129.25C167.631 126.775 165.546 124.75 162.996 124.75ZM162.996 111.25C160.447 111.25 158.362 113.275 158.362 115.75C158.362 118.225 160.447 120.25 162.996 120.25C165.546 120.25 167.631 118.225 167.631 115.75C167.631 113.275 165.546 111.25 162.996 111.25Z" fill="white"/>
</g>
<defs>
<filter id="filter0_d_135_2981" x="-35.813" y="0" width="387.619" height="350" filterUnits="userSpaceOnUse" color-interpolation-filters="sRGB">
<feFlood flood-opacity="0" result="BackgroundImageFix"/>
<feColorMatrix in="SourceAlpha" type="matrix" values="0 0 0 0 0 0 0 0 0 0 0 0 0 0 0 0 0 0 127 0" result="hardAlpha"/>
<feOffset dx="-5" dy="39"/>
<feGaussianBlur stdDeviation="66"/>
<feComposite in2="hardAlpha" operator="out"/>
<feColorMatrix type="matrix" values="0 0 0 0 0.945778 0 0 0 0 0.941837 0 0 0 0 0.941837 0 0 0 1 0"/>
<feBlend mode="normal" in2="BackgroundImageFix" result="effect1_dropShadow_135_2981"/>
<feBlend mode="normal" in="SourceGraphic" in2="effect1_dropShadow_135_2981" result="shape"/>
</filter>
</defs>
</svg>
